<?xml version="1.0" encoding="UTF-8"?>
<svg width="18px" height="18px" viewBox="0 0 18 18" version="1.1" xmlns="http://www.w3.org/2000/svg" xmlns:xlink="http://www.w3.org/1999/xlink">
    <title>地标4</title>
    <g id="地标4" stroke="none" stroke-width="1" fill="none" fill-rule="evenodd">
        <g id="编组备份-11" transform="translate(3.000000, 1.000000)" fill="#31D992">
            <path d="M6,10.6666667 C9.3137085,10.6666667 12,11.860574 12,13.3333333 C12,14.8060927 9.3137085,16 6,16 C2.6862915,16 0,14.8060927 0,13.3333333 C0,11.860574 2.6862915,10.6666667 6,10.6666667 Z M6,11.3333333 C3.01381546,11.3333333 0.666666667,12.3765106 0.666666667,13.3333333 C0.666666667,14.2901561 3.01381546,15.3333333 6,15.3333333 C8.98618454,15.3333333 11.3333333,14.2901561 11.3333333,13.3333333 C11.3333333,12.3765106 8.98618454,11.3333333 6,11.3333333 Z" id="椭圆形" fill-rule="nonzero"></path>
            <path d="M6,0 C8.94551867,0 11.3333333,2.35050506 11.3333333,5.25 C11.3333333,7.18299662 9.55555556,10.0996633 6,14 C2.44444444,10.0996633 0.666666667,7.18299662 0.666666667,5.25 C0.666666667,2.35050506 3.05448133,0 6,0 Z M6,2.65404998 C4.69088059,2.65404998 3.62962963,3.6987189 3.62962963,4.98738332 C3.62962963,6.27604773 4.69088059,7.32071665 6,7.32071665 C7.30911941,7.32071665 8.37037037,6.27604773 8.37037037,4.98738332 C8.37037037,3.6987189 7.30911941,2.65404998 6,2.65404998 Z" id="形状结合备份-2"></path>
        </g>
    </g>
</svg>