<?xml version="1.0" encoding="UTF-8"?>
<svg width="18px" height="18px" viewBox="0 0 18 18" version="1.1" xmlns="http://www.w3.org/2000/svg" xmlns:xlink="http://www.w3.org/1999/xlink">
    <title>地标6</title>
    <g id="地标6" stroke="none" stroke-width="1" fill="none" fill-rule="evenodd">
        <g id="编组备份-2" transform="translate(2.333679, 1.003729)" fill="#31D992">
            <circle id="椭圆形" cx="6.66632124" cy="4.44421416" r="4.44421416"></circle>
            <rect id="矩形" x="6.22189983" y="8.88842833" width="1" height="4.44421416"></rect>
            <path d="M3.926403,10.0330863 L4.10257425,10.9042954 C2.12673592,11.3038389 0.888842833,12.1240585 0.888842833,12.8815931 C0.888842833,14.0058689 3.45044906,15.1037002 6.66632124,15.1037002 C9.88219343,15.1037002 12.4437997,14.0058689 12.4437997,12.8815931 C12.4437997,12.1608146 11.3220925,11.3816993 9.50538654,10.9637519 L9.28407314,10.9153587 L9.46467061,10.0450563 C11.7804043,10.525597 13.3326425,11.5653881 13.3326425,12.8815931 C13.3326425,14.7026833 10.3229698,15.992543 6.66632124,15.992543 C3.00967265,15.992543 0,14.7026833 0,12.8815931 C0,11.5999179 1.47227131,10.5802051 3.68637252,10.0842124 L3.926403,10.0330863 Z" id="路径" fill-rule="nonzero"></path>
        </g>
    </g>
</svg>