<?xml version="1.0" encoding="UTF-8"?>
<svg width="18px" height="18px" viewBox="0 0 18 18" version="1.1" xmlns="http://www.w3.org/2000/svg" xmlns:xlink="http://www.w3.org/1999/xlink">
    <title>地标1</title>
    <g id="地标1" stroke="none" stroke-width="1" fill="none" fill-rule="evenodd">
        <path d="M9,1 C12.3137085,1 15,3.6862915 15,7 C15,9.209139 13,12.5424723 9,17 C5,12.5424723 3,9.209139 3,7 C3,3.6862915 5.6862915,1 9,1 Z M9,4.03319998 C7.52724067,4.03319998 6.33333333,5.22710732 6.33333333,6.69986665 C6.33333333,8.17262598 7.52724067,9.36653332 9,9.36653332 C10.4727593,9.36653332 11.6666667,8.17262598 11.6666667,6.69986665 C11.6666667,5.22710732 10.4727593,4.03319998 9,4.03319998 Z" id="形状结合备份-4" fill="#FFFFFF"></path>
        <path d="M9,1 C12.3137085,1 15,3.6862915 15,7 C15,9.209139 13,12.5424723 9,17 C5,12.5424723 3,9.209139 3,7 C3,3.6862915 5.6862915,1 9,1 Z M9,4.03319998 C7.52724067,4.03319998 6.33333333,5.22710732 6.33333333,6.69986665 C6.33333333,8.17262598 7.52724067,9.36653332 9,9.36653332 C10.4727593,9.36653332 11.6666667,8.17262598 11.6666667,6.69986665 C11.6666667,5.22710732 10.4727593,4.03319998 9,4.03319998 Z" id="形状结合备份-4" fill="#31D992"></path>
    </g>
</svg>